<svg width="34" height="30" viewBox="0 0 34 30" fill="none" xmlns="http://www.w3.org/2000/svg">
<path id="Vector" d="M1.46802 3.71453C1.46802 2.86119 1.46802 2.43451 1.6537 2.10858C1.81706 1.82188 2.07769 1.58879 2.39826 1.44269C2.7627 1.27663 3.23978 1.27663 4.19394 1.27663H29.4088C30.363 1.27663 30.84 1.27663 31.2045 1.44269C31.5251 1.58879 31.7856 1.82188 31.949 2.10858C32.1347 2.43451 32.1347 2.86119 32.1347 3.71453V6.36158C32.1347 6.73426 32.1347 6.9206 32.0877 7.09596C32.0459 7.25143 31.9771 7.40006 31.8836 7.53638C31.7783 7.69015 31.6309 7.82192 31.3363 8.08544L21.0071 17.3232C20.7125 17.5867 20.5652 17.7185 20.4599 17.8722C20.3663 18.0086 20.2975 18.1572 20.2558 18.3127C20.2088 18.4881 20.2088 18.6744 20.2088 19.047V22.6083L13.3939 28.7031V19.047C13.3939 18.6744 13.3939 18.4881 13.3469 18.3127C13.3051 18.1572 13.2363 18.0086 13.1429 17.8722C13.0375 17.7185 12.8902 17.5867 12.5955 17.3232L2.26642 8.08544C1.97177 7.82192 1.82443 7.69015 1.71908 7.53638C1.62566 7.40006 1.55683 7.25143 1.51509 7.09596C1.46802 6.9206 1.46802 6.73426 1.46802 6.36158V3.71453Z" fill="#5D88A8" stroke-width="2.55319" stroke-linecap="round" stroke-linejoin="round"/>
</svg>
